<svg width="109" height="104" viewBox="0 0 109 104" fill="none" xmlns="http://www.w3.org/2000/svg">
<g opacity="0.1">
<path d="M106.871 104.742H104.742V76.2148C104.742 71.0742 101.079 66.7736 96.2266 65.7845V45.5586C96.2266 39.6892 91.4514 34.9141 85.582 34.9141H84.7305V22.1406C84.7305 16.2712 79.9553 11.4961 74.0859 11.4961H67.2409C67.8044 10.4116 68.125 9.18133 68.125 7.87695C68.125 3.53356 64.5914 0 60.248 0C57.9893 0 55.9511 0.956943 54.5136 2.48507C53.076 0.956943 51.0378 0 48.779 0C44.4356 0 40.902 3.53356 40.902 7.87695C40.902 9.18133 41.2226 10.4116 41.7862 11.4961H34.9141C29.0447 11.4961 24.2695 16.2712 24.2695 22.1406V34.9141H23.418C17.5486 34.9141 12.7734 39.6892 12.7734 45.5586V65.7845C7.9206 66.7736 4.25781 71.0742 4.25781 76.2148V104.742H2.12891C0.953111 104.742 0 105.696 0 106.871C0 108.047 0.953111 109 2.12891 109H106.871C108.047 109 109 108.047 109 106.871C109 105.696 108.047 104.742 106.871 104.742ZM17.0312 54.6388C19.385 55.9368 22.0395 56.63 24.8018 56.63C28.4343 56.63 31.8838 55.4369 34.7022 53.2365C40.5018 57.7513 48.7004 57.7504 54.5 53.2356C60.2996 57.7504 68.4982 57.7513 74.2978 53.2365C77.1162 55.4369 80.5655 56.63 84.1982 56.63C86.9605 56.63 89.615 55.9368 91.9688 54.6388V65.5703H17.0312V54.6388ZM60.248 4.25781C62.2437 4.25781 63.8672 5.88132 63.8672 7.87695C63.8672 9.87259 62.2437 11.4961 60.248 11.4961C58.3723 11.4961 56.826 10.0618 56.647 8.23248C56.6523 8.11454 56.6562 7.99617 56.6562 7.87695C56.6562 7.75773 56.6523 7.63937 56.647 7.52143C56.826 5.69206 58.3723 4.25781 60.248 4.25781ZM45.1599 7.87695C45.1599 5.88132 46.7834 4.25781 48.779 4.25781C50.6548 4.25781 52.2008 5.69206 52.38 7.52143C52.3749 7.63937 52.3711 7.75773 52.3711 7.87695C52.3711 7.99617 52.3749 8.11454 52.38 8.23248C52.2008 10.0618 50.6548 11.4961 48.779 11.4961C46.7834 11.4961 45.1599 9.87259 45.1599 7.87695ZM23.418 39.1719H44.9199C46.0955 39.1719 47.0488 38.2188 47.0488 37.043C47.0488 35.8672 46.0955 34.9141 44.9199 34.9141H28.5273V22.1406C28.5273 18.619 31.3924 15.7539 34.9141 15.7539H74.0859C77.6076 15.7539 80.4727 18.619 80.4727 22.1406V34.9141H64.0801C62.9043 34.9141 61.9512 35.8672 61.9512 37.043C61.9512 38.2188 62.9043 39.1719 64.0801 39.1719H85.582C89.1037 39.1719 91.9688 42.037 91.9688 45.5586V49.4715C89.8111 51.346 87.0844 52.3722 84.1982 52.3722C81.0272 52.3722 78.0463 51.1372 75.8042 48.895C74.9726 48.0639 73.625 48.0639 72.7933 48.895C68.165 53.5237 60.6336 53.5237 56.0054 48.895C55.1738 48.0639 53.8262 48.0639 52.9944 48.895C48.3662 53.5237 40.8348 53.5237 36.2065 48.895C35.375 48.0639 34.0274 48.0639 33.1956 48.895C30.9534 51.1372 27.9726 52.3722 24.8015 52.3722C21.9154 52.3722 19.1887 51.346 17.031 49.4715V45.5586C17.0312 42.037 19.8963 39.1719 23.418 39.1719ZM14.9023 69.8281H94.0977C97.6193 69.8281 100.484 72.6932 100.484 76.2148V84.0469C96.0047 88.0884 89.0711 87.9517 84.7577 83.6379C83.9262 82.8068 82.5786 82.8068 81.7468 83.6379C79.5889 85.796 76.7198 86.9843 73.668 86.9843C70.6165 86.9843 67.7473 85.796 65.5895 83.6379C64.7579 82.8068 63.4103 82.8068 62.5788 83.6379C58.1242 88.0924 50.876 88.0924 46.4214 83.6379C45.5899 82.8068 44.2423 82.8068 43.4107 83.6379C41.2529 85.796 38.3838 86.9843 35.3322 86.9843C32.2804 86.9843 29.4113 85.796 27.2534 83.6379C26.4219 82.8068 25.0743 82.8068 24.2425 83.6379C19.9289 87.9519 12.9953 88.0886 8.51562 84.0471V76.2148C8.51562 72.6932 11.3807 69.8281 14.9023 69.8281ZM8.51562 104.742V89.2521C13.9199 92.2679 20.743 91.8425 25.7466 87.9751C28.4797 90.0938 31.8178 91.2422 35.332 91.2422C38.8462 91.2422 42.1843 90.0938 44.9169 87.9751C47.7286 90.1483 51.1138 91.2349 54.5 91.2347C57.8852 91.2345 61.2721 90.1477 64.0831 87.9751C66.8161 90.0938 70.1541 91.2422 73.6682 91.2422C77.1824 91.2422 80.5203 90.0938 83.2534 87.9751C88.257 91.8423 95.0799 92.2677 100.484 89.2521V104.742H8.51562Z" fill="white"/>
<path d="M54.5 39.1719C55.0599 39.1719 55.6092 38.9441 56.0049 38.5479C56.4011 38.1521 56.6289 37.6029 56.6289 37.043C56.6289 36.4831 56.4011 35.9338 56.0049 35.5378C55.6092 35.1419 55.0599 34.9141 54.5 34.9141C53.9401 34.9141 53.3908 35.1416 52.9949 35.5378C52.5989 35.9338 52.3711 36.4831 52.3711 37.043C52.3711 37.6029 52.5987 38.1521 52.9949 38.5479C53.3908 38.9441 53.9401 39.1719 54.5 39.1719Z" fill="white"/>
</g>
</svg>
