<svg width="19" height="15" viewBox="0 0 19 15" fill="none" xmlns="http://www.w3.org/2000/svg">
<path d="M7.28428 14.567C7.72533 15.0079 8.44044 15.0078 8.88134 14.567C9.32254 14.1258 9.32254 13.4108 8.88119 12.9696L4.54144 8.63005L17.1085 8.62884C17.7322 8.62869 18.2377 8.12319 18.2377 7.49918C18.2375 6.87547 17.732 6.37012 17.1083 6.37012L4.54084 6.37133L8.88164 2.03082C9.32269 1.58977 9.32269 0.874512 8.88164 0.43361C8.66104 0.213159 8.37207 0.102783 8.08296 0.102783C7.79399 0.102783 7.50503 0.213159 7.28443 0.433459L1.01589 6.70185C0.804018 6.91357 0.685059 7.20073 0.685059 7.50039C0.685209 7.80004 0.804169 8.08705 1.01604 8.29922L7.28428 14.567Z" fill="white"/>
</svg>
