<svg width="52" height="52" viewBox="0 0 52 52" fill="none" xmlns="http://www.w3.org/2000/svg">
<circle cx="26" cy="26" r="26" fill="#F4F6FB"/>
<g clip-path="url(#clip0)">
<path d="M39.541 24.1567C39.5933 24.6623 40.2606 25.5014 41.0901 26.1077C41.6078 26.4861 41.681 27.2289 41.2503 27.7038C40.5287 28.4994 39.4087 29.4001 38.2377 29.4001H35.1811L35.2759 24.1566H39.541V24.1567Z" fill="#59636F"/>
<path d="M22.1476 31.1613C23.0966 31.1613 23.7542 30.2138 23.4221 29.3248C22.5887 27.0941 20.2794 25.4904 17.5611 25.4904C14.8428 25.4904 12.5334 27.0941 11.7001 29.3248C11.368 30.2138 12.0256 31.1613 12.9746 31.1613H22.1476Z" fill="#1EAEE0"/>
<path d="M12.7227 27.6216C14.1194 28.4602 15.7805 28.9472 17.5611 28.9472C19.3417 28.9472 21.0028 28.4602 22.3995 27.6215C21.2646 26.3225 19.5191 25.4904 17.5611 25.4904C15.6031 25.4904 13.8576 26.3226 12.7227 27.6216Z" fill="#1D1D1D" fill-opacity="0.2"/>
<path d="M17.5611 27.0722C21.4781 27.0722 24.6535 24.1645 24.6535 20.5777C24.6535 16.9909 21.4781 14.0832 17.5611 14.0832C13.6441 14.0832 10.4688 16.9909 10.4688 20.5777C10.4688 24.1645 13.6441 27.0722 17.5611 27.0722Z" fill="#FFD3BD"/>
<path d="M11.2146 17.6765C12.5906 18.1135 14.4317 17.4601 15.409 16.9809C15.7756 16.8011 16.2072 16.8295 16.5503 17.0506C18.3321 18.1986 21.1881 18.4426 23.6677 17.2738C22.4328 15.364 20.1604 14.0833 17.561 14.0833C14.7829 14.0832 12.3782 15.5462 11.2146 17.6765Z" fill="#E7889D"/>
<path d="M29.8524 31.1613C28.9034 31.1613 28.2458 30.2138 28.5779 29.3248C29.4113 27.0941 31.7206 25.4904 34.4389 25.4904C37.1572 25.4904 39.4666 27.0941 40.2999 29.3248C40.6321 30.2138 39.9744 31.1613 39.0254 31.1613H29.8524Z" fill="#A2DDFD"/>
<path d="M34.4389 28.9472C36.2195 28.9472 37.8805 28.4602 39.2773 27.6216C38.1424 26.3226 36.3968 25.4904 34.4389 25.4904C32.4809 25.4904 30.7354 26.3226 29.6005 27.6216C30.9973 28.4602 32.6583 28.9472 34.4389 28.9472Z" fill="#7ACEFA"/>
<path d="M34.4389 27.0722C38.3559 27.0722 41.5312 24.1645 41.5312 20.5777C41.5312 16.9909 38.3559 14.0832 34.4389 14.0832C30.5219 14.0832 27.3465 16.9909 27.3465 20.5777C27.3465 24.1645 30.5219 27.0722 34.4389 27.0722Z" fill="#F2D1A5"/>
<path d="M23.3924 32.6618C23.3924 31.2039 22.1612 30.0336 20.6819 30.1337C19.4144 30.2196 18.3941 31.2577 18.3278 32.5263C18.3042 32.9774 18.3992 33.4041 18.5838 33.7788C18.6594 33.9322 18.6266 34.1151 18.5137 34.2436C18.0874 34.7289 17.8436 35.3784 17.8898 36.0851C17.9717 37.3381 18.9836 38.3551 20.2362 38.4426C21.7181 38.5461 22.9524 37.3746 22.9524 35.9149C22.9524 35.411 22.8047 34.9419 22.5511 34.5472C23.0674 34.0832 23.3924 33.4106 23.3924 32.6618Z" fill="#59636F"/>
<path d="M28.6076 32.6618C28.6076 31.2039 29.8388 30.0336 31.3181 30.1337C32.5856 30.2196 33.6059 31.2577 33.6722 32.5263C33.6958 32.9774 33.6009 33.4041 33.4162 33.7788C33.3406 33.9322 33.3734 34.1151 33.4863 34.2436C33.9126 34.7289 34.1564 35.3784 34.1102 36.0851C34.0283 37.3381 33.0164 38.3551 31.7638 38.4426C30.2819 38.5461 29.0477 37.3746 29.0477 35.9149C29.0477 35.411 29.1954 34.9419 29.4489 34.5472C28.9326 34.0832 28.6076 33.4106 28.6076 32.6618Z" fill="#59636F"/>
<path d="M21.4136 39.9168C20.4645 39.9168 19.8069 38.9693 20.1391 38.0803C20.9724 35.8497 23.2817 34.2459 26.0001 34.2459C28.7184 34.2459 31.0277 35.8496 31.8611 38.0803C32.1932 38.9693 31.5356 39.9168 30.5866 39.9168H21.4136Z" fill="#E67D97"/>
<path d="M26 37.7026C27.7806 37.7026 29.4416 37.2156 30.8384 36.377C29.7035 35.078 27.958 34.2459 26 34.2459C24.042 34.2459 22.2965 35.078 21.1616 36.377C22.5584 37.2156 24.2194 37.7026 26 37.7026Z" fill="#4D4D4D" fill-opacity="0.2"/>
<path d="M26 35.8277C29.917 35.8277 33.0924 32.92 33.0924 29.3332C33.0924 25.7464 29.917 22.8387 26 22.8387C22.083 22.8387 18.9076 25.7464 18.9076 29.3332C18.9076 32.92 22.083 35.8277 26 35.8277Z" fill="#CB9D82"/>
<path d="M32.9277 27.9377C32.2304 25.0216 29.3938 22.8386 26 22.8386C22.6062 22.8386 19.7696 25.0216 19.0723 27.9377C20.107 28.2992 21.6478 27.5791 22.1735 26.7192C22.2744 26.5542 22.4649 26.4629 22.6536 26.5053C23.7991 26.7627 24.883 26.4067 25.7859 25.7775C25.9151 25.6876 26.085 25.6876 26.2141 25.7775C27.1171 26.4067 28.2009 26.7627 29.3464 26.5053C29.5352 26.4629 29.7256 26.5542 29.8266 26.7192C30.3522 27.5791 31.893 28.2992 32.9277 27.9377Z" fill="#59636F"/>
<path d="M34.4389 14.0832C31.3259 14.0832 28.6817 15.9197 27.7271 18.4739C28.9968 18.2551 30.2649 17.8185 31.0014 17.3225C31.1551 17.219 31.3617 17.3274 31.3617 17.5127V17.7797C31.3617 18.2424 31.7368 18.6176 32.1996 18.6176H36.6781C37.1409 18.6176 37.516 18.2424 37.516 17.7797V17.5127C37.516 17.3274 37.7226 17.219 37.8763 17.3225C38.6128 17.8185 39.8809 18.2551 41.1506 18.4739C40.1961 15.9197 37.5518 14.0832 34.4389 14.0832Z" fill="#59636F"/>
<path d="M34.4389 22.3098C34.9688 22.3098 35.4726 22.0804 35.8213 21.6803C35.9913 21.4852 35.9711 21.1891 35.7758 21.0189C35.5807 20.8488 35.2846 20.8692 35.1144 21.0644C34.9439 21.2601 34.6976 21.3724 34.4388 21.3724C34.18 21.3724 33.9338 21.2601 33.7631 21.0643C33.5929 20.8692 33.2968 20.8489 33.1017 21.019C32.9066 21.1891 32.8863 21.4853 33.0564 21.6804C33.4053 22.0804 33.9091 22.3098 34.4389 22.3098ZM30.5358 21.8634C30.7948 21.8634 31.0046 21.6536 31.0046 21.3946V20.6446C31.0046 20.3857 30.7948 20.1759 30.5358 20.1759C30.2769 20.1759 30.0671 20.3857 30.0671 20.6446V21.3946C30.0671 21.6535 30.2769 21.8634 30.5358 21.8634ZM38.3419 21.8634C38.6009 21.8634 38.8107 21.6536 38.8107 21.3946V20.6446C38.8107 20.3857 38.6009 20.1759 38.3419 20.1759C38.083 20.1759 37.8732 20.3857 37.8732 20.6446V21.3946C37.8732 21.6535 38.083 21.8634 38.3419 21.8634ZM27.3369 29.7744C27.1418 29.6043 26.8457 29.6246 26.6756 29.8199C26.5051 30.0156 26.2588 30.1279 26 30.1279C25.7412 30.1279 25.495 30.0156 25.3244 29.8199C25.1543 29.6246 24.8582 29.6044 24.6631 29.7744C24.4679 29.9444 24.4475 30.2406 24.6176 30.4357C24.9662 30.8358 25.4701 31.0653 25.9999 31.0653C26.5298 31.0653 27.0337 30.8358 27.3823 30.4357C27.5525 30.2406 27.5321 29.9444 27.3369 29.7744ZM21.4641 21.8634C21.7231 21.8634 21.9329 21.6536 21.9329 21.3946V20.6446C21.9329 20.3857 21.7231 20.1759 21.4641 20.1759C21.2052 20.1759 20.9954 20.3857 20.9954 20.6446V21.3946C20.9954 21.6535 21.2052 21.8634 21.4641 21.8634ZM41.3668 25.7293C41.0088 25.4676 40.6715 25.1481 40.4176 24.8353C41.409 23.6573 42 22.1799 42 20.5777C42 16.6681 38.5249 13.6144 34.4389 13.6144C30.3356 13.6144 26.8778 16.6861 26.8778 20.5777C26.8778 21.2174 26.9706 21.8445 27.1544 22.451C26.7779 22.3976 26.3924 22.3699 25.9999 22.3699C25.6075 22.3699 25.2219 22.3977 24.8454 22.451C25.0293 21.8445 25.1221 21.2174 25.1221 20.5777C25.1221 16.6518 21.6303 13.6144 17.561 13.6144C13.5013 13.6144 10 16.6486 10 20.5777C10 22.9962 11.3461 25.1303 13.3842 26.3791C12.4109 27.1023 11.6693 28.0679 11.2611 29.1608C10.9705 29.9386 11.2419 30.8171 11.9211 31.2973C12.0033 31.3554 12.0978 31.3833 12.1913 31.3833C12.3384 31.3833 12.4831 31.3143 12.5744 31.1851C12.7239 30.9737 12.6737 30.6811 12.4622 30.5318C12.1303 30.2971 11.9975 29.8683 12.1393 29.4889C12.5355 28.4283 13.3074 27.5061 14.3257 26.8704C15.7118 27.4773 17.2372 27.6684 18.7175 27.4588C18.4012 28.4996 18.3507 29.6116 18.584 30.6926H14.4074C14.1484 30.6926 13.9386 30.9024 13.9386 31.1614C13.9386 31.4203 14.1484 31.6301 14.4074 31.6301H18.0395C17.7526 32.4085 17.8113 33.2479 18.1466 33.9515C16.7173 35.6031 17.4802 38.2037 19.6018 38.8043C19.6404 39.0859 19.744 39.3588 19.9108 39.5991C20.2524 40.0916 20.8142 40.3856 21.4136 40.3856H28.7666C29.0255 40.3856 29.2353 40.1758 29.2353 39.9169C29.2353 39.6579 29.0255 39.4481 28.7666 39.4481H21.4135C21.1171 39.4481 20.85 39.3084 20.6809 39.0646C20.5118 38.8211 20.4744 38.522 20.5781 38.2444C20.9742 37.1838 21.7463 36.2616 22.7646 35.6259C23.746 36.0556 24.8429 36.2964 25.9999 36.2964C27.1569 36.2964 28.2539 36.0556 29.2353 35.6259C30.2536 36.2616 31.0256 37.1838 31.4218 38.2444C31.5077 38.4745 31.4968 38.7221 31.3909 38.9414C31.2846 39.1618 31.0926 39.3307 30.8644 39.4048C30.6182 39.4848 30.4833 39.7492 30.5632 39.9954C30.6276 40.1936 30.8114 40.3195 31.009 40.3195C31.057 40.3195 31.1057 40.3121 31.1538 40.2965C31.6241 40.1439 32.0183 39.7984 32.2353 39.3489C32.3197 39.1738 32.3746 38.9903 32.4003 38.8036C33.6031 38.4621 34.4947 37.3877 34.578 36.1156C34.6301 35.3193 34.3729 34.5517 33.8534 33.9514C34.1878 33.2498 34.2481 32.4104 33.9605 31.6301H39.0253C39.6246 31.6301 40.1864 31.3361 40.5282 30.8436C40.8699 30.3511 40.9487 29.7221 40.7389 29.1607C40.7076 29.0769 40.6744 28.9939 40.6392 28.9116C40.9689 28.6557 41.2952 28.3521 41.5974 28.0187C42.2149 27.338 42.1086 26.2716 41.3668 25.7293ZM34.4389 14.5519C36.9983 14.5519 39.2231 15.8796 40.3256 17.8174C39.4401 17.589 38.6338 17.2676 38.1381 16.9338C37.9226 16.7886 37.6464 16.774 37.4175 16.896C37.1892 17.0175 37.0473 17.2539 37.0473 17.5128V17.7798C37.0473 17.9833 36.8818 18.1489 36.6782 18.1489H32.1997C31.9961 18.1489 31.8306 17.9833 31.8306 17.7798V17.5128C31.8306 17.2538 31.6887 17.0176 31.4604 16.8961C31.2314 16.7741 30.9552 16.7886 30.7397 16.9338C30.244 17.2676 29.4377 17.5891 28.5523 17.8175C29.6546 15.8796 31.8794 14.5519 34.4389 14.5519ZM28.0818 18.8849C29.1495 18.6754 30.1746 18.3273 30.9016 17.9299C30.9762 18.5799 31.5299 19.0864 32.1997 19.0864H36.6782C37.3479 19.0864 37.9016 18.5799 37.9763 17.9299C38.7034 18.3273 39.7284 18.6754 40.7961 18.8849C40.9692 19.4222 41.0626 19.9902 41.0626 20.5778C41.0626 24.4731 37.0431 27.3531 32.8737 26.4338C31.982 24.6481 30.2937 23.267 28.2303 22.6793C27.9552 22.0079 27.8154 21.3021 27.8154 20.5778C27.8153 19.9901 27.9086 19.4221 28.0818 18.8849ZM26 23.3074C28.9743 23.3074 31.4967 25.1001 32.3308 27.5601C31.6084 27.5576 30.6305 27.1357 30.2264 26.4747C30.0182 26.1343 29.6232 25.9627 29.2436 26.048C28.1054 26.3039 27.1136 25.833 26.4821 25.3929C26.1938 25.1921 25.8064 25.1921 25.5179 25.393C24.8864 25.833 23.895 26.3039 22.7562 26.048C22.3767 25.9632 21.9818 26.1344 21.7734 26.4748C21.3694 27.1359 20.3916 27.5578 19.6691 27.5603C20.5033 25.1002 23.0258 23.3074 26 23.3074ZM17.5611 14.5519C19.7768 14.5519 21.7416 15.5469 22.9447 17.0714C21.9716 17.4423 20.9198 17.6121 19.8693 17.5628C18.7159 17.5087 17.6274 17.1869 16.8042 16.6566C16.3247 16.3477 15.7111 16.3108 15.2027 16.56C14.2677 17.0184 13.0101 17.4167 11.9753 17.3426C13.1528 15.6659 15.2166 14.5519 17.5611 14.5519ZM10.9375 20.5777C10.9375 19.7417 11.1258 18.945 11.4655 18.2206C13.1189 18.5319 15.0338 17.687 15.6155 17.4018C15.8339 17.2948 16.0886 17.3108 16.2965 17.4447C17.3941 18.1518 18.7765 18.5094 20.2049 18.5093C21.3048 18.5093 22.4317 18.2968 23.4767 17.8691C23.9293 18.6839 24.1847 19.6041 24.1847 20.5777C24.1847 21.3021 24.0449 22.0079 23.7698 22.6792C21.7064 23.2669 20.0181 24.6481 19.1264 26.4337C14.9498 27.3546 10.9375 24.4658 10.9375 20.5777ZM19.7229 37.8589C18.349 37.3663 17.9069 35.6446 18.8659 34.5529C19.1079 34.2774 19.1622 33.8922 19.0042 33.5716C18.8494 33.2574 18.7774 32.9044 18.7959 32.5508C18.8084 32.3119 18.8632 32.0797 18.9555 31.8626C19.5259 33.2054 20.5367 34.3463 21.8232 35.1344C20.8669 35.845 20.1354 36.7898 19.7229 37.8589ZM26 35.3589C21.978 35.3589 18.8816 32.1134 19.4415 28.4903C20.6324 28.5966 22.0324 27.8406 22.5719 26.9674C23.7113 27.2171 24.8949 26.9518 26 26.1993C27.1054 26.9518 28.2891 27.2173 29.4287 26.9672C29.9303 27.7838 31.1917 28.5009 32.3295 28.5009C32.4065 28.5009 32.4829 28.4973 32.5585 28.4904C32.6011 28.7659 32.6236 29.0472 32.6236 29.3332C32.6236 32.6558 29.6523 35.3589 26 35.3589ZM32.2771 37.8589C31.8646 36.7898 31.1331 35.845 30.1768 35.1345C31.4634 34.3463 32.4741 33.2054 33.0445 31.8627C33.2846 32.4279 33.2501 33.0553 32.9958 33.5716C32.8378 33.8923 32.8921 34.2774 33.1341 34.5529C34.0937 35.6454 33.6502 37.3666 32.2771 37.8589ZM39.758 30.3091C39.5889 30.5528 39.3219 30.6926 39.0253 30.6926H33.416C33.5109 30.2528 33.5611 29.7983 33.5611 29.3332C33.5611 28.6838 33.4624 28.0511 33.2824 27.4587C34.7629 27.6684 36.2883 27.4771 37.6742 26.8703C38.6925 27.506 39.4644 28.4283 39.8607 29.4888C39.9645 29.7665 39.9271 30.0654 39.758 30.3091ZM40.903 27.3889C40.6763 27.6389 40.4358 27.8684 40.1927 28.0683C39.7836 27.4238 39.2493 26.8498 38.6157 26.3791C39.0287 26.126 39.4134 25.8368 39.7642 25.516C40.0576 25.8615 40.4219 26.1999 40.8135 26.4861C41.1062 26.7001 41.1478 27.1189 40.903 27.3889ZM29.903 28.9313C29.6441 28.9313 29.4342 29.1411 29.4342 29.4001V30.1501C29.4342 30.409 29.6441 30.6188 29.903 30.6188C30.1619 30.6188 30.3717 30.409 30.3717 30.1501V29.4001C30.3717 29.1412 30.1619 28.9313 29.903 28.9313ZM22.097 28.9313C21.8381 28.9313 21.6283 29.1411 21.6283 29.4001V30.1501C21.6283 30.409 21.8381 30.6188 22.097 30.6188C22.3559 30.6188 22.5658 30.409 22.5658 30.1501V29.4001C22.5658 29.1412 22.3559 28.9313 22.097 28.9313ZM13.6581 20.1759C13.3991 20.1759 13.1893 20.3857 13.1893 20.6446V21.3946C13.1893 21.6536 13.3991 21.8634 13.6581 21.8634C13.917 21.8634 14.1268 21.6536 14.1268 21.3946V20.6446C14.1268 20.3857 13.917 20.1759 13.6581 20.1759ZM18.8981 21.0189C18.7029 20.8488 18.4068 20.8692 18.2367 21.0644C18.0661 21.2601 17.8199 21.3724 17.5611 21.3724C17.3022 21.3724 17.0561 21.2601 16.8854 21.0644C16.7153 20.8693 16.4192 20.8489 16.2241 21.0189C16.0289 21.1891 16.0086 21.4852 16.1786 21.6803C16.5273 22.0804 17.0312 22.3098 17.561 22.3098C18.0909 22.3098 18.5947 22.0804 18.9434 21.6803C19.1135 21.4852 19.0933 21.189 18.8981 21.0189Z" fill="black"/>
</g>
<defs>
<clipPath id="clip0">
<rect width="32" height="32" fill="white" transform="translate(10 11)"/>
</clipPath>
</defs>
</svg>
