<svg width="20" height="20" viewBox="0 0 20 20" fill="none" xmlns="http://www.w3.org/2000/svg">
<path fill-rule="evenodd" clip-rule="evenodd" d="M15.1429 15.1428C15.6163 14.6694 15.6163 13.9019 15.1429 13.4286L11.7143 9.99996L15.1428 6.57144C15.6162 6.09805 15.6162 5.33054 15.1428 4.85716C14.6694 4.38377 13.9019 4.38377 13.4285 4.85716L10 8.28568L6.57147 4.85715C6.09809 4.38376 5.33058 4.38376 4.85719 4.85714C4.3838 5.33053 4.3838 6.09804 4.85719 6.57143L8.28572 9.99996L4.85711 13.4286C4.38373 13.9019 4.38373 14.6695 4.85711 15.1428C5.3305 15.6162 6.09801 15.6162 6.57139 15.1428L10 11.7142L13.4286 15.1428C13.902 15.6162 14.6695 15.6162 15.1429 15.1428Z" fill="white"/>
</svg>
