<svg width="20" height="20" viewBox="0 0 20 20" fill="none" xmlns="http://www.w3.org/2000/svg">
<path d="M8.63951 16.7095C9.01642 17.0969 9.62753 17.0968 10.0043 16.7095C10.3814 16.3218 10.3814 15.6936 10.0042 15.3059L6.29556 11.4928L17.035 11.4917C17.568 11.4916 18 11.0474 18 10.4991C17.9999 9.95106 17.5679 9.50701 17.0349 9.50701L6.29504 9.50807L10.0046 5.69414C10.3815 5.30659 10.3815 4.67811 10.0046 4.29069C9.81605 4.09699 9.56911 4 9.32204 4C9.0751 4 8.82816 4.09699 8.63964 4.29056L3.28272 9.7985C3.10166 9.98453 3 10.2369 3 10.5002C3.00013 10.7635 3.10179 11.0156 3.28284 11.2021L8.63951 16.7095Z" fill="white"/>
</svg>
