<svg width="78" height="87" viewBox="0 0 78 87" fill="none" xmlns="http://www.w3.org/2000/svg">
<g filter="url(#filter0_d)">
<path d="M28.6672 47.6265C31.0623 51.7748 36.376 53.1908 40.5358 50.7892C44.6956 48.3875 46.1262 43.0777 43.7312 38.9294C42.693 37.1311 41.1061 35.8467 39.3027 35.1638L39.3032 35.1634L29.1772 31.0537L27.6251 41.8536L27.6295 41.8511C27.3034 43.7711 27.6186 45.8101 28.6672 47.6265Z" fill="#79E884"/>
<path fill-rule="evenodd" clip-rule="evenodd" d="M42.724 49.7442C42.4283 50.0408 42.1113 50.3181 41.7743 50.5743C41.5588 50.7381 41.4082 50.838 41.2613 50.9355C41.2401 50.9496 41.2189 50.9636 41.1977 50.9778L41.846 52.0431C41.9863 52.286 41.9031 52.5966 41.6602 52.7369C41.5802 52.783 41.4928 52.805 41.4067 52.805C41.2312 52.805 41.0605 52.7139 40.9664 52.5509L40.3422 51.4699C39.0177 52.1413 37.5974 52.4632 36.1938 52.4632C33.0157 52.4632 29.9241 50.8194 28.2273 47.8804C27.1736 46.0555 26.7805 43.9105 27.1176 41.8327C27.1183 41.8156 27.1198 41.7985 27.1223 41.7814L28.6743 30.9815C28.6966 30.8268 28.7887 30.691 28.9242 30.6133C29.0596 30.5356 29.2234 30.5245 29.368 30.5831L33.3337 32.1927C33.5936 32.2982 33.7187 32.5943 33.6133 32.8543C33.5078 33.1142 33.2119 33.2394 32.9517 33.1339L29.5874 31.7684L28.1373 41.8609C28.1369 41.886 28.1346 41.9111 28.1303 41.9363C27.8133 43.802 28.1603 45.7328 29.1071 47.3728C31.2733 51.1247 35.9963 52.5022 39.8341 50.5895L38.9818 49.1135L32.086 47.2657C31.815 47.1931 31.6543 46.9147 31.7269 46.6437C31.7995 46.3728 32.0778 46.212 32.3489 46.2846L38.2636 47.8694L36.3834 44.6128L31.5995 43.3309C31.3285 43.2583 31.1677 42.9798 31.2404 42.7089C31.313 42.438 31.5913 42.2771 31.8623 42.3498L35.6651 43.3687L34.183 40.8015L31.3019 40.0295C31.031 39.9569 30.8702 39.6785 30.9428 39.4075C31.0154 39.1366 31.2938 38.9757 31.5648 39.0484L33.4647 39.5574L32.0606 37.1255C31.9203 36.8826 32.0036 36.572 32.2465 36.4318C32.4894 36.2915 32.8 36.3747 32.9402 36.6176L34.3443 39.0496L34.8535 37.1497C34.9261 36.8787 35.2044 36.718 35.4755 36.7905C35.7464 36.8631 35.9072 37.1416 35.8346 37.4125L35.0626 40.2936L36.5447 42.8608L37.5637 39.0579C37.6363 38.7869 37.9146 38.6261 38.1857 38.6987C38.4566 38.7714 38.6174 39.0498 38.5448 39.3208L37.2629 44.1048L39.1431 47.3614L40.7279 41.4465C40.8005 41.1756 41.0788 41.0148 41.3499 41.0874C41.6208 41.16 41.7816 41.4384 41.709 41.7094L39.8612 48.6053L40.7135 50.0815C42.3822 48.9783 43.5769 47.3272 44.101 45.382C44.6691 43.2732 44.3815 41.0717 43.2911 39.1831C42.3544 37.5606 40.874 36.3018 39.1226 35.6385C39.1119 35.6344 39.1014 35.6301 39.0911 35.6254L36.814 34.7012C36.5542 34.5958 36.429 34.2996 36.5344 34.0397C36.6399 33.7798 36.9359 33.6546 37.196 33.7601L39.4939 34.6927L39.5037 34.6968C41.4642 35.4449 43.121 36.8571 44.1708 38.6753C45.0045 40.1192 45.4204 41.7258 45.4009 43.3514C45.391 44.1778 45.3709 44.7117 44.9965 45.9409C44.7278 46.8232 44.3345 47.6479 43.8319 48.3957C43.5634 48.7951 43.2668 49.1996 42.724 49.7442ZM35.3922 33.7898C35.2978 33.8842 35.1667 33.9386 35.0331 33.9386C34.8995 33.9386 34.7686 33.8843 34.6741 33.7898C34.5796 33.6948 34.5253 33.5643 34.5253 33.4302C34.5253 33.2966 34.5796 33.1661 34.6741 33.0711C34.7685 32.9767 34.8995 32.9223 35.0331 32.9223C35.1667 32.9223 35.2978 32.9767 35.3922 33.0711C35.4871 33.1661 35.541 33.2966 35.541 33.4302C35.541 33.5638 35.4871 33.6948 35.3922 33.7898Z" fill="#0C971A"/>
</g>
<defs>
<filter id="filter0_d" x="-5" y="0.545898" width="82.4016" height="86.2591" filterUnits="userSpaceOnUse" color-interpolation-filters="sRGB">
<feFlood flood-opacity="0" result="BackgroundImageFix"/>
<feColorMatrix in="SourceAlpha" type="matrix" values="0 0 0 0 0 0 0 0 0 0 0 0 0 0 0 0 0 0 127 0"/>
<feOffset dy="2"/>
<feGaussianBlur stdDeviation="16"/>
<feColorMatrix type="matrix" values="0 0 0 0 0 0 0 0 0 0 0 0 0 0 0 0 0 0 0.15 0"/>
<feBlend mode="normal" in2="BackgroundImageFix" result="effect1_dropShadow"/>
<feBlend mode="normal" in="SourceGraphic" in2="effect1_dropShadow" result="shape"/>
</filter>
</defs>
</svg>
