<svg width="52" height="52" viewBox="0 0 52 52" fill="none" xmlns="http://www.w3.org/2000/svg">
<circle cx="26" cy="26" r="26" fill="#F4F6FB"/>
<path d="M27.2656 16C27.9646 16 28.5312 15.4334 28.5312 14.7344C28.5312 14.0354 27.9646 13.4688 27.2656 13.4688C26.5666 13.4688 26 14.0354 26 14.7344C26 15.4334 26.5666 16 27.2656 16Z" fill="#E67D97"/>
<path d="M24.7403 16C25.4393 16 26.006 15.4334 26.006 14.7344C26.006 14.0354 25.4393 13.4688 24.7403 13.4688C24.0413 13.4688 23.4747 14.0354 23.4747 14.7344C23.4747 15.4334 24.0413 16 24.7403 16Z" fill="#E67D97"/>
<path d="M34.7188 27.9062H17.2812C16.2457 27.9062 15.4062 28.7457 15.4062 29.7812V36.5312H36.5938V29.7812C36.5938 28.7457 35.7543 27.9062 34.7188 27.9062Z" fill="#E67D97"/>
<path d="M34.7188 27.9062H17.2812C16.2457 27.9062 15.4062 28.7457 15.4062 29.7812V31.6594L15.4487 31.7472C16.6141 32.9126 18.5037 32.9126 19.6692 31.7472C20.8347 32.9126 22.7242 32.9126 23.8897 31.7472C25.0552 32.9126 26.9448 32.9126 28.1103 31.7472C29.2757 32.9126 31.1653 32.9126 32.3308 31.7472C33.4963 32.9126 35.3858 32.9126 36.5513 31.7472C36.5513 31.7472 36.5668 31.7516 36.5938 31.7588V29.7812C36.5938 28.7457 35.7543 27.9062 34.7188 27.9062Z" fill="white"/>
<path d="M32.8497 21.1562H19.1622C18.1267 21.1562 17.2872 21.9957 17.2872 23.0312V27.9062H34.7247V23.0312C34.7247 21.9957 33.8852 21.1562 32.8497 21.1562Z" fill="#EC9EB1"/>
<path d="M34.7188 23.0312C34.7188 21.9957 33.8793 21.1562 32.8438 21.1562H19.1562C18.1207 21.1562 17.2812 21.9957 17.2812 23.0312V24.0973C18.485 25.3011 20.4368 25.3011 21.6406 24.0973C22.8444 25.3011 24.7962 25.3011 26 24.0973C27.2038 25.3011 29.1556 25.3011 30.3594 24.0973C31.5632 25.3011 33.515 25.3011 34.7188 24.0973V23.0312Z" fill="white"/>
<path d="M32.1875 21.1094V17.875C32.1875 16.8395 31.348 16 30.3125 16H21.6875C20.652 16 19.8125 16.8395 19.8125 17.875V21.1094H32.1875Z" fill="#EC9EB1"/>
<path d="M37.5312 36.0625H37.0625V29.7812C37.0625 28.6494 36.256 27.7024 35.1875 27.4847V23.0312C35.1875 21.7389 34.1361 20.6875 32.8438 20.6875H32.6562V17.875C32.6562 16.5827 31.6048 15.5312 30.3125 15.5312H28.8053C28.9294 15.2925 29 15.0216 29 14.7344C29 13.778 28.222 13 27.2656 13C26.7683 13 26.3195 13.2107 26.003 13.5472C25.6865 13.2107 25.2377 13 24.7403 13C23.784 13 23.006 13.778 23.006 14.7344C23.006 15.0216 23.0765 15.2925 23.2006 15.5312H21.6875C20.3952 15.5312 19.3438 16.5827 19.3438 17.875V20.6875H19.1562C17.8639 20.6875 16.8125 21.7389 16.8125 23.0312V27.4847C15.744 27.7024 14.9375 28.6494 14.9375 29.7812V36.0625H14.4688C14.2099 36.0625 14 36.2724 14 36.5312C14 36.7901 14.2099 37 14.4688 37H37.5312C37.7901 37 38 36.7901 38 36.5312C38 36.2724 37.7901 36.0625 37.5312 36.0625ZM17.75 25.0306C18.2682 25.3164 18.8527 25.469 19.4609 25.469C20.2608 25.469 21.0203 25.2063 21.6409 24.7218C22.9178 25.7159 24.723 25.7157 26 24.7216C27.277 25.7157 29.0822 25.7159 30.3591 24.7218C30.9797 25.2063 31.7392 25.469 32.5391 25.469C33.1473 25.469 33.7318 25.3164 34.25 25.0306V27.4375H17.75V25.0306ZM27.2656 13.9375C27.705 13.9375 28.0625 14.295 28.0625 14.7344C28.0625 15.1738 27.705 15.5312 27.2656 15.5312C26.8526 15.5312 26.5122 15.2155 26.4727 14.8127C26.4739 14.7867 26.4747 14.7606 26.4747 14.7344C26.4747 14.7081 26.4739 14.6821 26.4727 14.6561C26.5122 14.2533 26.8526 13.9375 27.2656 13.9375ZM23.9435 14.7344C23.9435 14.295 24.3009 13.9375 24.7403 13.9375C25.1533 13.9375 25.4938 14.2533 25.5332 14.6561C25.5321 14.6821 25.5312 14.7081 25.5312 14.7344C25.5312 14.7606 25.5321 14.7867 25.5332 14.8127C25.4938 15.2155 25.1533 15.5312 24.7403 15.5312C24.3009 15.5312 23.9435 15.1738 23.9435 14.7344ZM19.1562 21.625H23.8906C24.1495 21.625 24.3594 21.4151 24.3594 21.1562C24.3594 20.8974 24.1495 20.6875 23.8906 20.6875H20.2812V17.875C20.2812 17.0996 20.9121 16.4688 21.6875 16.4688H30.3125C31.0879 16.4688 31.7188 17.0996 31.7188 17.875V20.6875H28.1094C27.8505 20.6875 27.6406 20.8974 27.6406 21.1562C27.6406 21.4151 27.8505 21.625 28.1094 21.625H32.8438C33.6192 21.625 34.25 22.2558 34.25 23.0312V23.8928C33.7749 24.3055 33.1745 24.5315 32.5391 24.5315C31.8409 24.5315 31.1845 24.2596 30.6908 23.7659C30.5077 23.5829 30.211 23.5829 30.0279 23.7659C29.0088 24.785 27.3505 24.785 26.3315 23.7659C26.1484 23.5829 25.8516 23.5829 25.6685 23.7659C24.6494 24.785 22.9911 24.785 21.9721 23.7659C21.789 23.5829 21.4923 23.5829 21.3091 23.7659C20.8154 24.2596 20.1591 24.5315 19.4609 24.5315C18.8254 24.5315 18.225 24.3055 17.75 23.8928V23.0312C17.75 22.2558 18.3808 21.625 19.1562 21.625ZM17.2812 28.375H34.7188C35.4942 28.375 36.125 29.0058 36.125 29.7812V31.5057C35.1387 32.3956 33.612 32.3655 32.6623 31.4157C32.4792 31.2327 32.1824 31.2327 31.9993 31.4157C31.5242 31.8909 30.8924 32.1525 30.2205 32.1525C29.5486 32.1525 28.9168 31.8909 28.4417 31.4157C28.2586 31.2327 27.9619 31.2327 27.7788 31.4157C26.798 32.3965 25.202 32.3965 24.2212 31.4157C24.0381 31.2327 23.7414 31.2327 23.5583 31.4157C23.0832 31.8909 22.4515 32.1525 21.7796 32.1525C21.1076 32.1525 20.4759 31.8909 20.0008 31.4157C19.8177 31.2327 19.5209 31.2327 19.3378 31.4157C18.388 32.3656 16.8613 32.3957 15.875 31.5058V29.7812C15.875 29.0058 16.5058 28.375 17.2812 28.375ZM15.875 36.0625V32.6518C17.0649 33.3159 18.5673 33.2222 19.669 32.3707C20.2708 32.8372 21.0057 33.09 21.7795 33.09C22.5533 33.09 23.2883 32.8372 23.89 32.3707C24.509 32.8492 25.2544 33.0884 26 33.0884C26.7454 33.0883 27.4911 32.849 28.11 32.3707C28.7118 32.8372 29.4468 33.09 30.2205 33.09C30.9943 33.09 31.7292 32.8372 32.331 32.3707C33.4327 33.2222 34.935 33.3158 36.125 32.6518V36.0625H15.875Z" fill="black"/>
<path d="M26 21.625C26.1233 21.625 26.2442 21.5748 26.3314 21.4876C26.4186 21.4005 26.4688 21.2795 26.4688 21.1562C26.4688 21.033 26.4186 20.912 26.3314 20.8248C26.2442 20.7377 26.1233 20.6875 26 20.6875C25.8767 20.6875 25.7558 20.7376 25.6686 20.8248C25.5814 20.912 25.5312 21.033 25.5312 21.1562C25.5312 21.2795 25.5814 21.4005 25.6686 21.4876C25.7558 21.5748 25.8767 21.625 26 21.625Z" fill="black"/>
</svg>
