<svg width="102" height="147" viewBox="0 0 102 147" fill="none" xmlns="http://www.w3.org/2000/svg">
<path d="M13.9523 88.2664C11.5795 88.2664 9.74221 89.1646 8.44054 90.9609C7.13886 92.7436 6.48803 95.2339 6.48803 98.4319C6.48803 105.086 8.97612 108.414 13.9523 108.414C16.0404 108.414 18.5692 107.89 21.5386 106.842V112.149C19.098 113.17 16.3726 113.68 13.3625 113.68C9.03714 113.68 5.72872 112.367 3.43723 109.74C1.14574 107.1 0 103.317 0 98.391C0 95.2883 0.562702 92.5735 1.68811 90.2464C2.81351 87.9058 4.42704 86.1163 6.52871 84.878C8.64392 83.626 11.1185 83 13.9523 83C16.8404 83 19.742 83.7008 22.6572 85.1025L20.6234 90.2464C19.5115 89.7157 18.3929 89.253 17.2675 88.8584C16.1421 88.4637 15.037 88.2664 13.9523 88.2664Z" fill="white"/>
<path d="M46.0874 113.272L43.9315 106.168H33.091L30.9351 113.272H24.142L34.6367 83.3062H42.3451L52.8805 113.272H46.0874ZM42.4264 100.861C40.4332 94.4242 39.3078 90.784 39.0502 89.9403C38.8061 89.0965 38.6299 88.4297 38.5214 87.9398C38.0739 89.6817 36.7926 93.9887 34.6774 100.861H42.4264Z" fill="white"/>
<path d="M80.5614 113.272H73.4022L65.6125 100.698L62.9481 102.616V113.272H56.6431V83.4287H62.9481V97.0846L65.4294 93.5737L73.4835 83.4287H80.48L70.1073 96.6356L80.5614 113.272Z" fill="white"/>
<path d="M101.429 113.272H84.3037V83.4287H101.429V88.6134H90.6087V95.1659H100.676V100.351H90.6087V108.046H101.429V113.272Z" fill="white"/>
<path d="M19.5437 141.142V132.652C19.5437 131.612 19.3223 130.834 18.8793 130.318C18.4364 129.794 17.7483 129.532 16.815 129.532C15.589 129.532 14.6834 129.885 14.0981 130.592C13.5128 131.298 13.2201 132.386 13.2201 133.854V141.142H11.2507V132.652C11.2507 131.612 11.0292 130.834 10.5863 130.318C10.1433 129.794 9.45125 129.532 8.51003 129.532C7.27615 129.532 6.37052 129.905 5.79312 130.651C5.22364 131.39 4.9389 132.604 4.9389 134.295V141.142H2.96944V128.091H4.57111L4.89144 129.877H4.98636C5.3581 129.242 5.88013 128.746 6.55243 128.389C7.23265 128.032 7.99196 127.853 8.83036 127.853C10.8631 127.853 12.1919 128.591 12.8167 130.068H12.9116C13.2992 129.385 13.8608 128.845 14.5964 128.448C15.3319 128.052 16.1704 127.853 17.1116 127.853C18.5827 127.853 19.6822 128.234 20.4098 128.996C21.1454 129.75 21.5132 130.961 21.5132 132.628V141.142H19.5437Z" fill="white"/>
<path d="M33.5791 141.142L33.1876 139.284H33.0927C32.4441 140.102 31.7955 140.657 31.1469 140.951C30.5063 141.237 29.7035 141.38 28.7385 141.38C27.4493 141.38 26.4368 141.046 25.7013 140.38C24.9736 139.713 24.6098 138.764 24.6098 137.534C24.6098 134.898 26.7097 133.517 30.9097 133.39L33.1164 133.319V132.509C33.1164 131.485 32.8949 130.731 32.452 130.246C32.017 129.754 31.317 129.508 30.352 129.508C29.2684 129.508 28.0425 129.842 26.6741 130.508L26.0691 128.996C26.7097 128.647 27.4097 128.373 28.169 128.175C28.9362 127.976 29.7035 127.877 30.4707 127.877C32.0209 127.877 33.1678 128.222 33.9113 128.913C34.6627 129.603 35.0384 130.711 35.0384 132.235V141.142H33.5791ZM29.13 139.748C30.356 139.748 31.317 139.411 32.013 138.736C32.717 138.062 33.0689 137.117 33.0689 135.902V134.724L31.0995 134.807C29.5334 134.862 28.4024 135.109 27.7063 135.545C27.0182 135.974 26.6741 136.645 26.6741 137.558C26.6741 138.272 26.8877 138.816 27.3148 139.189C27.7498 139.562 28.3549 139.748 29.13 139.748Z" fill="white"/>
<path d="M48.006 141.142V132.699C48.006 131.636 47.7647 130.842 47.2823 130.318C46.7998 129.794 46.0444 129.532 45.0162 129.532C43.6558 129.532 42.6592 129.901 42.0264 130.639C41.3937 131.378 41.0773 132.596 41.0773 134.295V141.142H39.1078V128.091H40.7095L41.0298 129.877H41.1247C41.5281 129.234 42.0937 128.738 42.8213 128.389C43.549 128.032 44.3597 127.853 45.2535 127.853C46.8196 127.853 47.9981 128.234 48.789 128.996C49.58 129.75 49.9754 130.961 49.9754 132.628V141.142H48.006Z" fill="white"/>
<path d="M62.0295 141.142L61.638 139.284H61.543C60.8945 140.102 60.2459 140.657 59.5973 140.951C58.9566 141.237 58.1538 141.38 57.1889 141.38C55.8996 141.38 54.8872 141.046 54.1516 140.38C53.424 139.713 53.0601 138.764 53.0601 137.534C53.0601 134.898 55.1601 133.517 59.36 133.39L61.5668 133.319V132.509C61.5668 131.485 61.3453 130.731 60.9024 130.246C60.4674 129.754 59.7674 129.508 58.8024 129.508C57.7188 129.508 56.4928 129.842 55.1245 130.508L54.5194 128.996C55.1601 128.647 55.8601 128.373 56.6194 128.175C57.3866 127.976 58.1538 127.877 58.9211 127.877C60.4713 127.877 61.6182 128.222 62.3617 128.913C63.1131 129.603 63.4888 130.711 63.4888 132.235V141.142H62.0295ZM57.5804 139.748C58.8064 139.748 59.7674 139.411 60.4634 138.736C61.1673 138.062 61.5193 137.117 61.5193 135.902V134.724L59.5499 134.807C57.9838 134.862 56.8527 135.109 56.1567 135.545C55.4686 135.974 55.1245 136.645 55.1245 137.558C55.1245 138.272 55.3381 138.816 55.7652 139.189C56.2002 139.562 56.8053 139.748 57.5804 139.748Z" fill="white"/>
<path d="M78.2004 128.091V129.341L75.792 129.627C76.0134 129.905 76.2112 130.27 76.3852 130.723C76.5592 131.167 76.6462 131.671 76.6462 132.235C76.6462 133.513 76.2112 134.533 75.3411 135.295C74.4711 136.057 73.2767 136.438 71.7581 136.438C71.3706 136.438 71.0067 136.406 70.6666 136.343C69.8282 136.788 69.409 137.347 69.409 138.022C69.409 138.379 69.5553 138.645 69.848 138.82C70.1406 138.986 70.6429 139.07 71.3547 139.07H73.6564C75.0643 139.07 76.1439 139.367 76.8953 139.963C77.6546 140.558 78.0343 141.423 78.0343 142.559C78.0343 144.003 77.4569 145.103 76.3021 145.857C75.1473 146.619 73.4626 147 71.248 147C69.5474 147 68.2345 146.682 67.3091 146.047C66.3915 145.412 65.9328 144.515 65.9328 143.356C65.9328 142.563 66.1859 141.876 66.6921 141.296C67.1983 140.717 67.9102 140.324 68.8277 140.118C68.4955 139.967 68.2147 139.733 67.9853 139.415C67.7638 139.098 67.6531 138.728 67.6531 138.308C67.6531 137.831 67.7797 137.415 68.0328 137.057C68.2859 136.7 68.6853 136.355 69.231 136.021C68.5587 135.744 68.009 135.271 67.5819 134.605C67.1627 133.938 66.9531 133.176 66.9531 132.318C66.9531 130.889 67.3802 129.79 68.2345 129.02C69.0887 128.242 70.2988 127.853 71.8649 127.853C72.5451 127.853 73.1581 127.932 73.7039 128.091H78.2004ZM67.8311 143.333C67.8311 144.039 68.1277 144.575 68.7209 144.94C69.3141 145.305 70.1644 145.488 71.2717 145.488C72.9248 145.488 74.1468 145.238 74.9377 144.738C75.7366 144.245 76.136 143.575 76.136 142.725C76.136 142.019 75.9185 141.527 75.4835 141.249C75.0485 140.979 74.2298 140.844 73.0276 140.844H70.6666C69.7729 140.844 69.0768 141.058 68.5785 141.487C68.0802 141.916 67.8311 142.531 67.8311 143.333ZM68.8989 132.271C68.8989 133.184 69.1559 133.874 69.67 134.343C70.1841 134.811 70.8999 135.045 71.8175 135.045C73.7394 135.045 74.7005 134.108 74.7005 132.235C74.7005 130.274 73.7276 129.294 71.7819 129.294C70.8564 129.294 70.1446 129.544 69.6463 130.044C69.148 130.544 68.8989 131.286 68.8989 132.271Z" fill="white"/>
<path d="M86.363 141.38C84.441 141.38 82.9223 140.792 81.8071 139.617C80.6998 138.443 80.1461 136.811 80.1461 134.724C80.1461 132.62 80.6602 130.949 81.6885 129.711C82.7246 128.472 84.1127 127.853 85.8528 127.853C87.4822 127.853 88.7714 128.393 89.7205 129.472C90.6697 130.544 91.1442 131.961 91.1442 133.723V134.974H82.1868C82.2263 136.506 82.6099 137.669 83.3376 138.462C84.0732 139.256 85.1054 139.653 86.4342 139.653C87.8341 139.653 89.2183 139.359 90.5866 138.772V140.534C89.8906 140.836 89.2302 141.05 88.6053 141.177C87.9884 141.312 87.2409 141.38 86.363 141.38ZM85.8291 129.508C84.785 129.508 83.9506 129.85 83.3257 130.532C82.7088 131.215 82.345 132.16 82.2342 133.366H89.0324C89.0324 132.12 88.7556 131.167 88.2019 130.508C87.6483 129.842 86.8573 129.508 85.8291 129.508Z" fill="white"/>
<path d="M100.446 127.853C101.023 127.853 101.541 127.901 102 127.996L101.727 129.83C101.189 129.711 100.715 129.651 100.303 129.651C99.2515 129.651 98.3498 130.08 97.5984 130.937C96.8549 131.794 96.4831 132.862 96.4831 134.14V141.142H94.5137V128.091H96.1391L96.3645 130.508H96.4594C96.9419 129.659 97.5232 129.004 98.2035 128.544C98.8837 128.083 99.6311 127.853 100.446 127.853Z" fill="white"/>
<path d="M54.6914 8.75C56.7301 8.75 58.3828 7.0973 58.3828 5.05859C58.3828 3.01989 56.7301 1.36719 54.6914 1.36719C52.6527 1.36719 51 3.01989 51 5.05859C51 7.0973 52.6527 8.75 54.6914 8.75Z" fill="#E67D97"/>
<path d="M47.3259 8.75C49.3646 8.75 51.0173 7.0973 51.0173 5.05859C51.0173 3.01989 49.3646 1.36719 47.3259 1.36719C45.2872 1.36719 43.6345 3.01989 43.6345 5.05859C43.6345 7.0973 45.2872 8.75 47.3259 8.75Z" fill="#E67D97"/>
<path d="M76.4297 43.4766H25.5703C22.5501 43.4766 20.1016 45.9251 20.1016 48.9453V68.6328H81.8984V48.9453C81.8984 45.9251 79.4499 43.4766 76.4297 43.4766Z" fill="#E67D97"/>
<path d="M76.4297 43.4766H25.5703C22.5501 43.4766 20.1016 45.9251 20.1016 48.9453V54.4232L20.2253 54.6793C23.6245 58.0785 29.1358 58.0785 32.5352 54.6793C35.9344 58.0785 41.4457 58.0785 44.8451 54.6793C48.2443 58.0785 53.7557 58.0785 57.1549 54.6793C60.5542 58.0785 66.0656 58.0785 69.4648 54.6793C72.8641 58.0785 78.3753 58.0785 81.7747 54.6793C81.7747 54.6793 81.82 54.6923 81.8984 54.7132V48.9453C81.8984 45.9251 79.4499 43.4766 76.4297 43.4766Z" fill="white"/>
<path d="M70.9783 23.7891H31.0565C28.0362 23.7891 25.5877 26.2376 25.5877 29.2578V43.4766H76.4471V29.2578C76.4471 26.2376 73.9986 23.7891 70.9783 23.7891Z" fill="#EC9EB1"/>
<path d="M76.4297 29.2578C76.4297 26.2376 73.9812 23.7891 70.9609 23.7891H31.0391C28.0188 23.7891 25.5703 26.2376 25.5703 29.2578V32.3672C29.0814 35.8783 34.7741 35.8783 38.2852 32.3672C41.7962 35.8783 47.4889 35.8783 51 32.3672C54.5111 35.8783 60.2038 35.8783 63.7148 32.3672C67.2259 35.8783 72.9186 35.8783 76.4297 32.3672V29.2578Z" fill="white"/>
<path d="M69.0469 23.6523V14.2188C69.0469 11.1985 66.5984 8.75 63.5781 8.75H38.4219C35.4016 8.75 32.9531 11.1985 32.9531 14.2188V23.6523H69.0469Z" fill="#EC9EB1"/>
<path d="M84.6328 67.2656H83.2656V48.9453C83.2656 45.644 80.9134 42.8821 77.7969 42.2469V29.2578C77.7969 25.4885 74.7303 22.4219 70.9609 22.4219H70.4141V14.2188C70.4141 10.4494 67.3475 7.38281 63.5781 7.38281H59.1822C59.5441 6.68637 59.75 5.89627 59.75 5.05859C59.75 2.26926 57.4807 0 54.6914 0C53.2408 0 51.9319 0.614551 51.0088 1.59592C50.0855 0.614551 48.7765 0 47.326 0C44.5366 0 42.2674 2.26926 42.2674 5.05859C42.2674 5.89627 42.4733 6.68637 42.8352 7.38281H38.4219C34.6525 7.38281 31.5859 10.4494 31.5859 14.2188V22.4219H31.0391C27.2697 22.4219 24.2031 25.4885 24.2031 29.2578V42.2469C21.0866 42.8821 18.7344 45.644 18.7344 48.9453V67.2656H17.3672C16.6121 67.2656 16 67.8779 16 68.6328C16 69.3878 16.6121 70 17.3672 70H84.6328C85.3878 70 86 69.3878 86 68.6328C86 67.8779 85.3878 67.2656 84.6328 67.2656ZM26.9375 35.0891C28.4491 35.9227 30.1538 36.3679 31.9277 36.3679C34.2606 36.3679 36.4758 35.6017 38.2858 34.1886C42.0103 37.088 47.2755 37.0874 51 34.188C54.7245 37.0874 59.9897 37.088 63.7142 34.1886C65.5242 35.6017 67.7393 36.3679 70.0723 36.3679C71.8462 36.3679 73.5509 35.9227 75.0625 35.0891V42.1094H26.9375V35.0891ZM54.6914 2.73438C55.973 2.73438 57.0156 3.77699 57.0156 5.05859C57.0156 6.3402 55.973 7.38281 54.6914 7.38281C53.4868 7.38281 52.4938 6.46174 52.3788 5.28691C52.3822 5.21117 52.3847 5.13516 52.3847 5.05859C52.3847 4.98203 52.3822 4.90602 52.3788 4.83027C52.4938 3.65545 53.4868 2.73438 54.6914 2.73438ZM45.0017 5.05859C45.0017 3.77699 46.0444 2.73438 47.326 2.73438C48.5306 2.73438 49.5234 3.65545 49.6386 4.83027C49.6353 4.90602 49.6328 4.98203 49.6328 5.05859C49.6328 5.13516 49.6353 5.21117 49.6386 5.28691C49.5234 6.46174 48.5306 7.38281 47.326 7.38281C46.0444 7.38281 45.0017 6.3402 45.0017 5.05859ZM31.0391 25.1562H44.8477C45.6026 25.1562 46.2148 24.5442 46.2148 23.7891C46.2148 23.034 45.6026 22.4219 44.8477 22.4219H34.3203V14.2188C34.3203 11.9571 36.1603 10.1172 38.4219 10.1172H63.5781C65.8397 10.1172 67.6797 11.9571 67.6797 14.2188V22.4219H57.1523C56.3972 22.4219 55.7852 23.034 55.7852 23.7891C55.7852 24.5442 56.3972 25.1562 57.1523 25.1562H70.9609C73.2225 25.1562 75.0625 26.9962 75.0625 29.2578V31.7707C73.6769 32.9745 71.9258 33.6335 70.0723 33.6335C68.0358 33.6335 66.1215 32.8404 64.6816 31.4005C64.1476 30.8667 63.2821 30.8667 62.748 31.4005C59.7757 34.373 54.939 34.373 51.9667 31.4005C51.4327 30.8667 50.5673 30.8667 50.0331 31.4005C47.0609 34.373 42.2242 34.373 39.2519 31.4005C38.7179 30.8667 37.8524 30.8667 37.3183 31.4005C35.8784 32.8404 33.964 33.6335 31.9276 33.6335C30.0741 33.6335 28.323 32.9745 26.9374 31.7707V29.2578C26.9375 26.9962 28.7775 25.1562 31.0391 25.1562ZM25.5703 44.8438H76.4297C78.6913 44.8438 80.5312 46.6837 80.5312 48.9453V53.9751C77.6544 56.5705 73.2016 56.4828 70.4316 53.7124C69.8975 53.1787 69.0321 53.1787 68.4979 53.7124C67.1122 55.0983 65.2696 55.8615 63.3097 55.8615C61.35 55.8615 59.5075 55.0983 58.1217 53.7124C57.5877 53.1787 56.7222 53.1787 56.1882 53.7124C53.3275 56.5731 48.6726 56.5731 45.8119 53.7124C45.2779 53.1787 44.4125 53.1787 43.8785 53.7124C42.4927 55.0983 40.6501 55.8615 38.6904 55.8615C36.7305 55.8615 34.888 55.0983 33.5022 53.7124C32.9682 53.1787 32.1027 53.1787 31.5686 53.7124C28.7984 56.4829 24.3456 56.5707 21.4688 53.9752V48.9453C21.4688 46.6837 23.3087 44.8438 25.5703 44.8438ZM21.4688 67.2656V57.3178C24.9394 59.2546 29.3212 58.9814 32.5345 56.4978C34.2897 57.8584 36.4334 58.5959 38.6903 58.5959C40.9471 58.5959 43.0908 57.8584 44.8457 56.4978C46.6514 57.8934 48.8254 58.5912 51 58.5911C53.174 58.591 55.349 57.893 57.1543 56.4978C58.9095 57.8584 61.0531 58.5959 63.3099 58.5959C65.5667 58.5959 67.7103 57.8584 69.4655 56.4978C72.6788 58.9813 77.0605 59.2545 80.5312 57.3178V67.2656H21.4688Z" fill="#D03C71"/>
<path d="M51 25.1562C51.3596 25.1562 51.7123 25.01 51.9665 24.7555C52.2209 24.5014 52.3672 24.1486 52.3672 23.7891C52.3672 23.4295 52.2209 23.0768 51.9665 22.8225C51.7123 22.5682 51.3596 22.4219 51 22.4219C50.6404 22.4219 50.2877 22.568 50.0334 22.8225C49.7791 23.0768 49.6328 23.4295 49.6328 23.7891C49.6328 24.1486 49.779 24.5014 50.0334 24.7555C50.2877 25.01 50.6404 25.1562 51 25.1562Z" fill="#D03C71"/>
</svg>
